<svg class="svg-icon" style="width: 1em;height: 1em;vertical-align: middle;fill: currentColor;overflow: hidden;" viewBox="0 0 1024 1024" version="1.1" xmlns="http://www.w3.org/2000/svg"><path d="M307.2 764c-10.2 0-20.6-4-28.4-11.8-15.6-15.6-15.4-41 0.2-56.6l20.6-20.4c-69.6-64.2-92.4-149.8-92.4-208.4 0-110 89.6-199.6 199.6-199.6 37.6 0 74 10.8 105 30 31-19.4 67.4-30 105.6-30 110 0 199.6 89.6 199.6 199.6 0 56.8-21.4 138.6-85.6 202l20.2 19c16.2 15.2 16.8 40.4 1.8 56.6-15.2 16.2-40.4 17-56.6 1.8L666 717.4c-39.8 21.8-89 37.8-149.6 44-1.4 0.2-2.8 0.2-4.2 0.2s-3 0-4.2-0.2c-56.4-5.8-103-20-141.4-39.6l-31 30.8c-8 7.6-18.2 11.4-28.4 11.4z m120-102.8c24 9.2 52 16.2 84.8 20 35.8-4 66-12 91.4-22.6l-89.2-83.6-87 86.2z m-20.4-314c-66 0-119.6 53.6-119.6 119.6 0 13 2.8 92.8 69.4 152l100.6-99.8c-35.4-44.8-40-108-9.2-157.4 1.2-1.8 2.4-3.8 3.6-5.6-14.2-5.8-29.4-8.8-44.8-8.8z m163.2 170.2l102.8 96.4c61.4-58.6 64-134.6 64-147.2 0-66-53.6-119.6-119.6-119.6-15.6 0-30.8 3-44.6 8.6 2.2 3.4 4.4 6.8 6.4 10.2 28.2 48.2 24 108-9 151.6z m-58-107c-6.8 15.4-6.4 32.8 0.6 47.8 6.8-15 6.8-32.6-0.6-47.8z" fill="#FE8E46" /><path d="M395.4 286.8m-22.8 0a22.8 22.8 0 1 0 45.6 0 22.8 22.8 0 1 0-45.6 0Z" fill="#E56823" /><path d="M267.2 504m-32 0a32 32 0 1 0 64 0 32 32 0 1 0-64 0Z" fill="#E56823" /><path d="M474.2 398m-32 0a32 32 0 1 0 64 0 32 32 0 1 0-64 0Z" fill="#E56823" /><path d="M722.4 618.8m-32 0a32 32 0 1 0 64 0 32 32 0 1 0-64 0Z" fill="#E56823" /><path d="M609.085139 732.892679a32 32 0 1 0 10.426412-63.144991 32 32 0 1 0-10.426412 63.144991Z" fill="#E56823" /><path d="M372.8 724.6L329.8 700l-44.2-38.6c4.4 4.8 9.2 9.4 14 14l-20.6 20.4c-15.6 15.6-15.8 40.8-0.2 56.6 7.8 7.8 18.2 11.8 28.4 11.8s20.4-3.8 28.2-11.6l31-30.8c2.2 0.8 4.2 1.8 6.4 2.8zM333 594c0.2 0.2 0 0.2 0 0zM428.2 660.2l84.6-84-66.2-72.2c3 5.2 6.6 10.2 10.4 15l-100.4 99.6 20.4 21.4 51.2 20.2zM451 669l0.4 0.2c-0.2 0-0.4 0-0.4-0.2z" fill="#E56823" /><path d="M307.2 778c-14.4 0-28.2-5.6-38.4-16-21-21.2-20.8-55.4 0.2-76.4l10.4-10.4c-80-81.2-86.4-179.4-86.4-208.6 0-117.8 95.8-213.6 213.6-213.6 36.8 0 72.8 9.6 105 27.8 32-18.2 68.2-27.8 105.6-27.8 117.8 0 213.6 95.8 213.6 213.6 0 27.8-6 121.4-79.8 201.4l9.8 9.2c10.6 9.8 16.6 23.2 17 37.6 0.4 14.4-4.8 28.2-14.6 38.6-9.8 10.6-23.2 16.6-37.6 17-14.4 0.4-28.2-4.8-38.6-14.6l-23.4-22c-42.2 21.4-91.2 35.2-146 40.8-1.8 0.2-3.8 0.2-5.6 0.2-2 0-4-0.2-5.8-0.2-51-5.2-97-17.6-137-36.6l-24 23.8c-10.2 10.6-23.6 16.2-38 16.2z m0-14z m99.6-482.8c-102.4 0-185.6 83.2-185.6 185.6 0 27.4 6.4 122.8 88 198.2 2.8 2.6 4.4 6.2 4.6 10 0 3.8-1.4 7.6-4.2 10.2l-20.6 20.4c-10.2 10.2-10.2 26.6-0.2 36.8 5 5 11.4 7.6 18.4 7.6 7 0 13.4-2.6 18.4-7.6l31-30.8c4.2-4.2 10.8-5.2 16.2-2.6 39 20 85 32.8 136.4 38.2 0.8 0 2 0.2 2.8 0.2 0.8 0 1.8 0 2.6-0.2 55-5.6 103.6-20 144.4-42.4 5.4-3 11.8-2 16.4 2l30.8 28.8c5 4.8 11.6 7.2 18.6 7 7-0.2 13.4-3.2 18.2-8.2 4.8-5 7.2-11.6 7-18.6-0.2-7-3.2-13.4-8.2-18.2l-20.2-19c-2.8-2.6-4.4-6.2-4.4-10s1.4-7.4 4.2-10.2c75.6-74.6 81.6-165.8 81.6-192 0-102.4-83.2-185.6-185.6-185.6-35 0-68.8 9.6-98.2 27.8-4.6 2.8-10.2 2.8-14.8 0-29.6-17.8-63.4-27.4-97.6-27.4zM512 695h-1.6c-32.2-3.6-62-10.6-88.2-20.8-4.4-1.8-7.6-5.6-8.6-10.2s0.4-9.4 3.8-12.8l87-86.4c5.4-5.4 14-5.4 19.4-0.2l89.2 83.6c3.4 3.2 5 8 4.2 12.8-0.8 4.6-4 8.6-8.4 10.4-28 11.6-60 19.6-95.2 23.6h-1.6z m-58.8-39.8c18.2 5.4 37.8 9.4 58.8 11.8 23.4-2.8 45.4-7.4 65.2-13.8l-62.8-59-61.2 61z m-96.8-22.4c-3.4 0-6.6-1.2-9.4-3.6-70.4-62.6-74-146.2-74-162.4 0-73.6 60-133.6 133.6-133.6 17.2 0 33.8 3.2 49.8 9.8 4 1.6 6.8 4.8 8.2 8.8 1.2 4 0.6 8.4-1.8 12-1.2 1.8-2.2 3.4-3.4 5.2-27.2 43.8-24 100.8 8.4 141.4 4.4 5.6 4 13.6-1.2 18.6L366 628.8c-2.4 2.6-6 4-9.6 4z m50.4-271.6c-58.2 0-105.6 47.4-105.6 105.6 0 8.2 1.6 77.6 55.2 132.4l82.4-81.8c-30.4-45.8-33.8-105-8.4-153.6-7.8-1.8-15.8-2.6-23.6-2.6z m266 266.8c-3.4 0-6.8-1.2-9.6-3.8l-102.8-96.4c-5.2-4.8-5.8-13-1.6-18.6 30-39.8 33.2-93.2 8-136-1.8-3.2-3.8-6.4-6-9.6-2.4-3.6-3-7.8-1.8-12 1.2-4 4.2-7.2 8.2-8.8 15.8-6.4 32.6-9.6 50-9.6 73.6 0 133.6 60 133.6 133.6 0 15.4-3.2 95.2-68.4 157.2-2.6 2.6-6.2 4-9.6 4z m-84.4-112.6l84 78.8c49-54 50.4-119.8 50.4-127.6 0-58.2-47.4-105.6-105.6-105.6-8 0-15.8 0.8-23.4 2.6 25.8 48.2 23.6 106-5.4 151.8z m-75.6-43.2c-5.4 0-10.4-3.2-12.6-8-9-18.8-9.2-40.6-0.8-59.6 2.2-5 7.2-8.2 12.6-8.2 5.4-0.2 10.4 3 12.8 8 9 18.8 9.4 40.4 0.8 59.6-2.4 4.8-7.2 8.2-12.8 8.2z" fill="#463218" /><path d="M570 531.4c-3.6 0-7.4-1.4-10-4.2L502.6 468c-5.4-5.6-5.2-14.4 0.4-19.8 5.6-5.4 14.4-5.2 19.8 0.4l57.4 59.2c5.4 5.6 5.2 14.4-0.4 19.8-2.8 2.6-6.2 3.8-9.8 3.8zM514.2 588.8c-3.6 0-7-1.4-9.8-4l-57.4-55.8c-5.6-5.4-5.6-14.2-0.2-19.8 5.4-5.6 14.2-5.6 19.8-0.2l57.4 55.8c5.6 5.4 5.6 14.2 0.2 19.8-2.6 2.8-6.2 4.2-10 4.2zM512.2 424.4c-4.6 0-9.2-2.2-11.8-6.4-28-43.8-50.6-48.2-50.8-48.2h0.4l2.8-27.8c3.6 0.4 35.4 5.2 71.2 60.8 4.2 6.6 2.2 15.2-4.2 19.4-2.4 1.4-5.2 2.2-7.6 2.2zM665.8 731.2c-3.4 0-6.8-1.2-9.6-3.8l-62.4-58.6c-5.6-5.2-6-14.2-0.6-19.8 5.2-5.6 14.2-6 19.8-0.6l62.4 58.6c5.6 5.2 6 14.2 0.6 19.8-2.8 2.8-6.4 4.4-10.2 4.4zM731.2 682.8c-3.4 0-6.8-1.2-9.6-3.8l-58.4-54.8c-5.6-5.2-6-14.2-0.6-19.8 5.2-5.6 14.2-6 19.8-0.6l58.4 54.8c5.6 5.2 6 14.2 0.6 19.8-2.8 2.8-6.4 4.4-10.2 4.4zM427.2 675.2c-1.6 0-3.4-0.2-5-1-25.8-9.8-72-42.8-74-44-6.2-4.4-7.8-13.2-3.2-19.6s13.2-7.8 19.6-3.2c12.4 9 49 33.6 67.6 40.6 7.2 2.8 10.8 10.8 8.2 18-2.2 5.8-7.4 9.2-13.2 9.2zM366.4 735.6c-2 0-4-0.4-5.8-1.2-38.8-17.8-69.6-47.8-70.8-49-5.6-5.4-5.6-14.2-0.2-19.8 5.4-5.6 14.2-5.6 19.8-0.2 0.2 0.2 28.6 27.8 63 43.6 7 3.2 10.2 11.6 6.8 18.6-2.4 4.8-7.4 8-12.8 8z" fill="#463218" /><path d="M579 380c-4.6 0-9.2-2.4-11.8-6.6-16.4-26.2-63.8-65-64.2-65.4-6-4.8-6.8-13.8-2-19.6 4.8-6 13.6-6.8 19.6-2 2 1.8 51.6 42.2 70.4 72.2 4 6.6 2 15.2-4.4 19.2-2.4 1.6-5 2.2-7.6 2.2z" fill="#463218" /><path d="M737.8 385.6c-27.4-46.8-82.2-62.4-82.6-62.6l7.4-27c2.6 0.8 66 18.6 99.4 75.4l-24.2 14.2z" fill="#FFFFFF" /></svg>